<svg width="80" height="80" viewBox="0 0 80 80" fill="none" xmlns="http://www.w3.org/2000/svg">
<path d="M38.4453 64V14H41.6484V64H38.4453ZM47.6836 29.9961C47.5013 28.2904 46.7331 26.9622 45.3789 26.0117C44.0378 25.0612 42.293 24.5859 40.1445 24.5859C38.6341 24.5859 37.3385 24.8138 36.2578 25.2695C35.1771 25.7253 34.3503 26.3437 33.7773 27.125C33.2044 27.9062 32.9115 28.7982 32.8984 29.8008C32.8984 30.6341 33.0872 31.3568 33.4648 31.9687C33.8555 32.5807 34.3828 33.1016 35.0469 33.5312C35.7109 33.9479 36.4466 34.2995 37.2539 34.5859C38.0612 34.8724 38.875 35.1133 39.6953 35.3086L43.4453 36.2461C44.9557 36.5977 46.4076 37.0729 47.8008 37.6719C49.207 38.2708 50.4635 39.026 51.5703 39.9375C52.6901 40.849 53.5755 41.9492 54.2266 43.2383C54.8776 44.5273 55.2031 46.0378 55.2031 47.7695C55.2031 50.1133 54.6042 52.1771 53.4063 53.9609C52.2083 55.7318 50.4766 57.1185 48.2109 58.1211C45.9583 59.1107 43.2305 59.6055 40.0273 59.6055C36.9154 59.6055 34.2135 59.1237 31.9219 58.1602C29.6432 57.1966 27.8594 55.7904 26.5703 53.9414C25.2943 52.0924 24.6042 49.8398 24.5 47.1836H31.6289C31.7331 48.5768 32.1628 49.7357 32.918 50.6602C33.6732 51.5846 34.6563 52.2747 35.8672 52.7305C37.0911 53.1862 38.4583 53.4141 39.9688 53.4141C41.5443 53.4141 42.9245 53.1797 44.1094 52.7109C45.3073 52.2292 46.2448 51.5651 46.9219 50.7187C47.599 49.8594 47.944 48.8568 47.957 47.7109C47.944 46.6693 47.638 45.8099 47.0391 45.1328C46.4401 44.4427 45.6003 43.8698 44.5195 43.4141C43.4518 42.9453 42.2018 42.5286 40.7695 42.1641L36.2188 40.9922C32.9245 40.1458 30.3203 38.8633 28.4063 37.1445C26.5052 35.4128 25.5547 33.1146 25.5547 30.25C25.5547 27.8932 26.1927 25.8294 27.4688 24.0586C28.7578 22.2878 30.5091 20.9141 32.7227 19.9375C34.9362 18.9479 37.4427 18.4531 40.2422 18.4531C43.0807 18.4531 45.5677 18.9479 47.7031 19.9375C49.8516 20.9141 51.5378 22.2747 52.7617 24.0195C53.9857 25.7513 54.6172 27.7435 54.6562 29.9961H47.6836Z" fill="white"/>
<circle cx="40" cy="40" r="38.5" stroke="white" stroke-width="3"/>
</svg>
