<svg width="90" height="90" viewBox="0 0 90 90" fill="none" xmlns="http://www.w3.org/2000/svg">
<path d="M32.6602 7.40035C31.9395 7.6816 31.4648 8.82418 31.4648 10.3007C31.4648 11.707 31.8516 12.7089 32.7832 13.7285C33.6621 14.6953 33.7148 15.3632 33.0645 16.664C32.7656 17.2617 32.5195 17.9648 32.5195 18.2461C32.5195 19.248 33.8555 19.8808 34.7168 19.2656C34.9102 19.125 35.3496 18.4746 35.6836 17.8242C36.2285 16.7519 36.2988 16.4707 36.2988 15.2929C36.2988 13.8164 35.9297 12.9199 34.875 11.7246C34.2246 11.0214 34.1367 10.4589 34.4707 9.31637C34.7344 8.41989 34.5586 7.80465 33.9258 7.47067C33.3457 7.17184 33.3105 7.17184 32.6602 7.40035Z" fill="white"/>
<path d="M18.1406 11.6895C17.9472 11.9355 17.6835 12.5332 17.5781 13.0254C17.1738 14.6953 17.6484 16.3828 18.914 17.8066C19.6699 18.6328 19.6874 19.3359 18.9843 20.7422C18.3515 21.9727 18.3339 22.3066 18.8261 22.9219C19.1074 23.2734 19.3359 23.3789 19.8632 23.3789C20.6542 23.3789 20.8652 23.2031 21.6386 21.8672C22.0956 21.0586 22.2187 20.6191 22.289 19.5645C22.3945 18 22.0781 17.0332 21.0761 15.8906C20.3554 15.0469 20.0742 14.1328 20.373 13.5703C20.4785 13.3594 20.5664 12.9023 20.5664 12.5156C20.5664 11.6367 20.1621 11.25 19.1953 11.25C18.6503 11.25 18.4042 11.3555 18.1406 11.6895Z" fill="white"/>
<path d="M46.0898 11.6895C45.8964 11.9355 45.6328 12.5332 45.5273 13.0254C45.123 14.6953 45.5976 16.3828 46.8632 17.8066C47.6191 18.6328 47.6367 19.3359 46.9335 20.7422C46.3007 21.9727 46.2831 22.3066 46.7753 22.9219C47.0566 23.2734 47.2851 23.3789 47.7949 23.3789C48.6562 23.3789 48.9023 23.168 49.6406 21.7441C50.2031 20.6895 50.2734 20.3906 50.2734 19.2832C50.2734 17.8242 49.8867 16.8398 48.955 15.8027C48.3046 15.0645 48.0234 14.1152 48.3222 13.5703C48.4277 13.3594 48.5156 12.9023 48.5156 12.5156C48.5156 11.6367 48.1113 11.25 47.1445 11.25C46.5996 11.25 46.3535 11.3555 46.0898 11.6895Z" fill="white"/>
<path d="M29.5664 26.0334C27.3164 26.3322 24.2051 27.1935 23.8711 27.6154C23.4141 28.1603 23.4668 28.9338 23.9941 29.4435C24.5215 29.9884 24.8203 29.9884 26.8945 29.4611C29.6191 28.7756 31.4824 28.5998 34.8398 28.7052C39.4277 28.8283 43.0312 29.7424 46.9336 31.7463C48.5859 32.59 51.9609 34.7697 51.8203 34.9103C51.7852 34.9279 49.3242 34.7873 46.3184 34.5939C39.6211 34.172 38.3906 34.2248 36.8262 34.9455C34.8398 35.8771 33.0469 38.0744 32.748 39.9377L32.6426 40.6056H21.5859H10.5293L11.1094 39.7795C12.6562 37.5822 16.3125 34.383 19.1953 32.6603C19.8633 32.2736 20.4785 31.799 20.5664 31.6232C20.8477 31.1134 20.7773 30.4982 20.373 29.9884C19.6523 29.0744 18.5625 29.4611 15.3457 31.7638C12.5332 33.7677 9.68555 36.6857 7.75195 39.5158L7.04883 40.5529L5.76562 40.6759C3.48047 40.8869 1.58203 42.0998 0.5625 44.0334C0.140625 44.8244 0.0878906 45.1056 0.0878906 46.758C0.0878906 48.3224 0.140625 48.7267 0.492188 49.4123C1.47656 51.4162 3.35742 52.717 5.4668 52.8752C6.38086 52.9279 6.69727 53.0334 6.75 53.2443C6.80273 53.4025 7.7168 56.7599 8.78906 60.7326C9.94922 64.9689 10.9512 68.3088 11.2148 68.8185C12.252 70.7697 14.4316 72.3517 16.6816 72.7736C17.2266 72.8791 20.5312 72.9494 24.416 72.9494H31.2012L31.6055 73.9689C32.8535 76.9924 35.7715 79.9631 38.918 81.3869C43.0488 83.2677 48.3047 83.0744 52.1719 80.9299C52.7695 80.5959 55.4238 78.6974 58.0781 76.7463L62.8945 73.1779L75.9375 65.6369C88.1895 58.5705 89.0332 58.0431 89.5078 57.3049C89.9824 56.5842 90.0176 56.3908 89.9648 55.2834L89.8945 54.0529L85.5352 46.4943C83.1445 42.3283 81.0176 38.7775 80.8418 38.5841C80.4199 38.1447 79.418 38.1447 78.9258 38.5841C78.1172 39.3049 78.2754 39.674 82.8809 47.6369C85.2539 51.7502 87.1875 55.2658 87.1875 55.4767C87.1875 55.758 86.6602 56.1447 84.8145 57.1994C83.5137 57.9552 82.3008 58.5353 82.1426 58.5002C81.9316 58.465 80.1035 55.4592 76.957 50.0099C68.2559 34.9806 68.0098 34.5236 68.1328 34.2248C68.291 33.7853 72.8613 31.2365 73.248 31.3595C73.4238 31.4123 74.0391 32.3088 74.6367 33.3634C75.7617 35.3498 76.2715 35.8244 77.0273 35.631C78.1875 35.3322 78.4863 34.383 77.8008 33.1349C75.498 28.9865 75.0586 28.5646 73.0547 28.5646H71.8066L65.8301 32.0099L59.8535 35.4377L58.1484 35.3498L56.4434 35.2443L55.4238 34.2599C51.3457 30.34 45.4922 27.3693 39.6211 26.2619C37.7578 25.9103 31.5352 25.7697 29.5664 26.0334ZM65.5664 35.842C65.5664 35.9826 77.6602 57.0588 79.1016 59.4318L79.5938 60.2228L70.4531 65.4963C61.541 70.6291 61.2246 70.84 56.3203 74.4787C51.2578 78.2404 49.9922 79.0138 47.9707 79.5588C46.6172 79.9103 44.1035 79.9631 42.627 79.6467C41.2734 79.3654 38.6367 78.0822 37.582 77.2033C35.543 75.4982 34.0312 73.0373 33.4863 70.5588C32.8535 67.7463 33.3809 64.3361 34.8398 61.9455C35.9297 60.1349 36.9844 59.1857 42.1348 55.3361C45.4395 52.8752 47.373 51.3283 47.5488 50.9943C48.1289 49.8517 47.6895 48.1994 46.6523 47.6017C46.3008 47.3908 44.8066 47.092 42.4512 46.758C38.3203 46.1603 37.6523 45.9318 36.5801 44.7189C35.4199 43.383 35.1035 41.9767 35.5957 40.3244C36.1406 38.4963 37.7227 37.2658 39.6914 37.1427C40.3418 37.1076 45.2988 37.3537 50.7129 37.6877L60.5566 38.3029L61.3828 37.881C61.8223 37.6525 62.8594 37.0549 63.668 36.5802C65.127 35.7013 65.5664 35.5256 65.5664 35.842ZM32.8008 43.717C33.3105 45.3869 34.752 47.2853 36.1406 48.0939C37.3008 48.7795 38.2148 49.008 41.3613 49.465C42.9961 49.7111 44.3672 49.9396 44.4375 49.9924C44.4902 50.0451 35.7363 50.0978 24.9785 50.0978C4.04297 50.0978 4.78125 50.133 3.81445 49.2541C2.90039 48.4279 2.54883 46.6701 3.05859 45.4748C3.375 44.7189 4.20117 43.9806 5.02734 43.6818C5.58984 43.4709 8.20898 43.4357 19.2129 43.4181C31.9219 43.4181 32.7129 43.4357 32.8008 43.717ZM40.4297 52.9806C40.4297 53.0334 39.4277 53.7892 38.1973 54.7033C35.3496 56.7775 33.9609 58.0783 32.8887 59.6779C31.1836 62.2267 30.4102 64.881 30.4102 68.2033V70.1369H24.0293C17.0156 70.1369 16.5234 70.0842 15.1523 69.0822C13.7988 68.1154 13.623 67.6408 11.5664 60.1525C10.5293 56.3205 9.66797 53.1213 9.66797 53.0509C9.66797 52.9631 16.5938 52.9103 25.0488 52.9103C33.5039 52.9103 40.4297 52.9455 40.4297 52.9806Z" fill="white"/>
</svg>
