<svg width="41" height="40" viewBox="0 0 41 40" fill="none" xmlns="http://www.w3.org/2000/svg">
<path d="M33.3631 5H6.69645C6.25442 5 5.8305 5.17559 5.51794 5.48816C5.20538 5.80072 5.02979 6.22464 5.02979 6.66667V33.3333C5.02979 33.7754 5.20538 34.1993 5.51794 34.5118C5.8305 34.8244 6.25442 35 6.69645 35H21.0548V23.4H17.1581V18.8583H21.0548V15.525C21.0548 11.65 23.4215 9.53833 26.8881 9.53833C28.0531 9.535 29.2198 9.595 30.3798 9.71667V13.75H27.9881C26.1081 13.75 25.7415 14.6467 25.7415 15.9583V18.85H30.2365L29.6531 23.3917H25.7398V35H33.3631C33.8051 35 34.2291 34.8244 34.5416 34.5118C34.8542 34.1993 35.0298 33.7754 35.0298 33.3333V6.66667C35.0298 6.22464 34.8542 5.80072 34.5416 5.48816C34.2291 5.17559 33.8051 5 33.3631 5V5Z" fill="white"/>
</svg>
