<svg width="90" height="90" viewBox="0 0 90 90" fill="none" xmlns="http://www.w3.org/2000/svg">
<path d="M30 71.25C31.9891 71.25 33.8968 70.4598 35.3033 69.0533C36.7098 67.6468 37.5 65.7391 37.5 63.75C37.5 61.7609 36.7098 59.8532 35.3033 58.4467C33.8968 57.0402 31.9891 56.25 30 56.25C28.0109 56.25 26.1032 57.0402 24.6967 58.4467C23.2902 59.8532 22.5 61.7609 22.5 63.75C22.5 65.7391 23.2902 67.6468 24.6967 69.0533C26.1032 70.4598 28.0109 71.25 30 71.25V71.25ZM67.5 71.25C69.4891 71.25 71.3968 70.4598 72.8033 69.0533C74.2098 67.6468 75 65.7391 75 63.75C75 61.7609 74.2098 59.8532 72.8033 58.4467C71.3968 57.0402 69.4891 56.25 67.5 56.25C65.5109 56.25 63.6032 57.0402 62.1967 58.4467C60.7902 59.8532 60 61.7609 60 63.75C60 65.7391 60.7902 67.6468 62.1967 69.0533C63.6032 70.4598 65.5109 71.25 67.5 71.25V71.25Z" stroke="white" stroke-width="2.5" stroke-miterlimit="1.5" stroke-linecap="round" stroke-linejoin="round"/>
<path d="M37.6875 63.75H56.25V24.75C56.25 24.1533 56.0129 23.581 55.591 23.159C55.169 22.7371 54.5967 22.5 54 22.5H3.75M21.1875 63.75H13.5C13.2045 63.75 12.9119 63.6918 12.639 63.5787C12.366 63.4657 12.1179 63.2999 11.909 63.091C11.7001 62.8821 11.5343 62.634 11.4213 62.361C11.3082 62.088 11.25 61.7955 11.25 61.5V43.125" stroke="white" stroke-width="2.5" stroke-linecap="round"/>
<path d="M7.5 33.75H22.5" stroke="white" stroke-width="2.5" stroke-linecap="round" stroke-linejoin="round"/>
<path d="M56.25 33.75H77.2875C77.7224 33.7501 78.148 33.8763 78.5127 34.1132C78.8774 34.3501 79.1656 34.6877 79.3425 35.085L86.055 50.19C86.1829 50.4768 86.2493 50.7872 86.25 51.1012V61.5C86.25 61.7955 86.1918 62.0881 86.0787 62.361C85.9657 62.634 85.7999 62.8821 85.591 63.091C85.3821 63.2999 85.134 63.4657 84.861 63.5787C84.5881 63.6918 84.2955 63.75 84 63.75H76.875M56.25 63.75H60" stroke="white" stroke-width="2.5" stroke-linecap="round"/>
</svg>
