<svg width="41" height="40" viewBox="0 0 41 40" fill="none" xmlns="http://www.w3.org/2000/svg">
<path d="M20.03 11.9885C15.5964 11.9885 12.0183 15.5666 12.0183 20.0002C12.0183 24.4338 15.5964 28.0119 20.03 28.0119C24.4636 28.0119 28.0417 24.4338 28.0417 20.0002C28.0417 15.5666 24.4636 11.9885 20.03 11.9885ZM20.03 25.2072C17.1628 25.2072 14.8229 22.8674 14.8229 20.0002C14.8229 17.133 17.1628 14.7932 20.03 14.7932C22.8972 14.7932 25.237 17.133 25.237 20.0002C25.237 22.8674 22.8972 25.2072 20.03 25.2072ZM28.3698 9.79315C27.3347 9.79315 26.4987 10.6291 26.4987 11.6642C26.4987 12.6994 27.3347 13.5353 28.3698 13.5353C29.405 13.5353 30.2409 12.7033 30.2409 11.6642C30.2412 11.4184 30.193 11.175 30.0991 10.9478C30.0052 10.7207 29.8674 10.5143 29.6936 10.3405C29.5198 10.1667 29.3134 10.0289 29.0862 9.93495C28.8591 9.84103 28.6156 9.79285 28.3698 9.79315ZM35.6472 20.0002C35.6472 17.8439 35.6667 15.7072 35.5456 13.5549C35.4245 11.0549 34.8542 8.83612 33.0261 7.008C31.194 5.17597 28.9792 4.60956 26.4792 4.48847C24.3229 4.36737 22.1862 4.3869 20.0339 4.3869C17.8776 4.3869 15.7409 4.36737 13.5886 4.48847C11.0886 4.60956 8.86981 5.17987 7.04169 7.008C5.20966 8.84003 4.64325 11.0549 4.52216 13.5549C4.40106 15.7111 4.4206 17.8478 4.4206 20.0002C4.4206 22.1525 4.40106 24.2932 4.52216 26.4455C4.64325 28.9455 5.21356 31.1642 7.04169 32.9924C8.87372 34.8244 11.0886 35.3908 13.5886 35.5119C15.7448 35.633 17.8815 35.6135 20.0339 35.6135C22.1901 35.6135 24.3268 35.633 26.4792 35.5119C28.9792 35.3908 31.1979 34.8205 33.0261 32.9924C34.8581 31.1603 35.4245 28.9455 35.5456 26.4455C35.6706 24.2932 35.6472 22.1564 35.6472 20.0002ZM32.2097 29.2111C31.9245 29.9221 31.5808 30.4533 31.03 31.0002C30.4792 31.551 29.9518 31.8947 29.2409 32.1799C27.1862 32.9963 22.3073 32.8127 20.03 32.8127C17.7526 32.8127 12.8698 32.9963 10.8151 32.1838C10.1042 31.8986 9.57294 31.5549 9.02606 31.0041C8.47528 30.4533 8.13153 29.926 7.84638 29.215C7.03388 27.1564 7.21747 22.2775 7.21747 20.0002C7.21747 17.7228 7.03388 12.84 7.84638 10.7853C8.13153 10.0744 8.47528 9.54315 9.02606 8.99628C9.57685 8.4494 10.1042 8.10175 10.8151 7.81659C12.8698 7.00409 17.7526 7.18769 20.03 7.18769C22.3073 7.18769 27.1901 7.00409 29.2448 7.81659C29.9558 8.10175 30.487 8.4455 31.0339 8.99628C31.5847 9.54706 31.9284 10.0744 32.2136 10.7853C33.0261 12.84 32.8425 17.7228 32.8425 20.0002C32.8425 22.2775 33.0261 27.1564 32.2097 29.2111Z" fill="white"/>
</svg>
