<svg width="41" height="40" viewBox="0 0 41 40" fill="none" xmlns="http://www.w3.org/2000/svg">
<path d="M34.4048 4.375H5.65479C4.96338 4.375 4.40479 4.93359 4.40479 5.625V34.375C4.40479 35.0664 4.96338 35.625 5.65479 35.625H34.4048C35.0962 35.625 35.6548 35.0664 35.6548 34.375V5.625C35.6548 4.93359 35.0962 4.375 34.4048 4.375ZM28.4399 15.6914C28.4517 15.875 28.4517 16.0664 28.4517 16.2539C28.4517 21.9883 24.0845 28.5938 16.104 28.5938C13.6431 28.5938 11.3618 27.8789 9.43994 26.6484C9.7915 26.6875 10.1274 26.7031 10.4868 26.7031C12.5181 26.7031 14.3853 26.0156 15.8735 24.8516C13.9673 24.8125 12.3657 23.5625 11.8188 21.8438C12.4868 21.9414 13.0884 21.9414 13.7759 21.7656C12.7943 21.5662 11.9121 21.0331 11.2791 20.257C10.646 19.4808 10.3012 18.5094 10.3032 17.5078V17.4531C10.8774 17.7773 11.5532 17.9766 12.2603 18.0039C11.6659 17.6078 11.1784 17.0711 10.8412 16.4415C10.5039 15.8119 10.3271 15.1088 10.3267 14.3945C10.3267 13.5859 10.5376 12.8477 10.9165 12.207C12.006 13.5482 13.3655 14.6451 14.9066 15.4264C16.4477 16.2078 18.1361 16.6561 19.8618 16.7422C19.2485 13.793 21.4517 11.4062 24.1001 11.4062C25.3501 11.4062 26.4751 11.9297 27.2681 12.7734C28.2485 12.5898 29.186 12.2227 30.022 11.7305C29.6978 12.7344 29.0181 13.582 28.1157 14.1172C28.9907 14.0234 29.8345 13.7812 30.6157 13.4414C30.0259 14.3086 29.2876 15.0781 28.4399 15.6914Z" fill="white"/>
</svg>
