<svg width="41" height="40" viewBox="0 0 41 40" fill="none" xmlns="http://www.w3.org/2000/svg">
<path d="M36.7993 11.5664C36.6001 10.8244 36.2094 10.1477 35.6665 9.60405C35.1236 9.06042 34.4474 8.66893 33.7056 8.46875C30.9751 7.73438 20.0298 7.73438 20.0298 7.73438C20.0298 7.73438 9.08447 7.73437 6.354 8.46484C5.6119 8.66437 4.93535 9.05565 4.39231 9.59937C3.84927 10.1431 3.45884 10.8201 3.26025 11.5625C2.52979 14.2969 2.52979 20 2.52979 20C2.52979 20 2.52979 25.7031 3.26025 28.4336C3.6626 29.9414 4.8501 31.1289 6.354 31.5312C9.08447 32.2656 20.0298 32.2656 20.0298 32.2656C20.0298 32.2656 30.9751 32.2656 33.7056 31.5312C35.2134 31.1289 36.397 29.9414 36.7993 28.4336C37.5298 25.7031 37.5298 20 37.5298 20C37.5298 20 37.5298 14.2969 36.7993 11.5664ZM16.5532 25.2344V14.7656L25.6157 19.9609L16.5532 25.2344Z" fill="white"/>
</svg>
